<svg xmlns="http://www.w3.org/2000/svg" x="0px" y="0px" width="50" height="50" viewBox="0 0 50 50">
<path d="M 36 5 C 32.151 5 29 8.151 29 12 C 29 12.322 29.035 12.635 29.08 12.943 L 16.91 19.203 C 15.703 17.847 13.933 17 12 17 C 8.151 17 5 20.151 5 24 C 5 27.849 8.151 31 12 31 C 13.933 31 15.703 30.153 16.91 28.797 L 29.08 35.057 C 29.035 35.365 29 35.678 29 36 C 29 39.849 32.151 43 36 43 C 39.849 43 43 39.849 43 36 C 43 32.151 39.849 29 36 29 C 34.067 29 32.297 29.847 31.09 31.203 L 18.92 24.943 C 18.965 24.635 19 24.322 19 24 C 19 23.678 18.965 23.365 18.92 23.057 L 31.09 16.797 C 32.297 18.153 34.067 19 36 19 C 39.849 19 43 15.849 43 12 C 43 8.151 39.849 5 36 5 z"></path>
</svg>